<?xml version="1.0" encoding="UTF-8" standalone="no"?>
<svg
   xmlns:dc="http://purl.org/dc/elements/1.1/"
   xmlns:cc="http://creativecommons.org/ns#"
   xmlns:rdf="http://www.w3.org/1999/02/22-rdf-syntax-ns#"
   xmlns:svg="http://www.w3.org/2000/svg"
   xmlns="http://www.w3.org/2000/svg"
   xmlns:sodipodi="http://sodipodi.sourceforge.net/DTD/sodipodi-0.dtd"
   xmlns:inkscape="http://www.inkscape.org/namespaces/inkscape"
   id="svg1716"
   version="1.1"
   viewBox="0 0 67.733331 67.733331"
   height="256"
   width="256"
   sodipodi:docname="settings_icon.svg"
   inkscape:version="1.0.1 (3bc2e813f5, 2020-09-07)">
  <defs
     id="defs1710" />
  <sodipodi:namedview
     id="base"
     pagecolor="#ffffff"
     bordercolor="#666666"
     borderopacity="1.0"
     inkscape:pageopacity="0.0"
     inkscape:pageshadow="2"
     inkscape:zoom="0.70000001"
     inkscape:cx="16.46454"
     inkscape:cy="193.93828"
     inkscape:document-units="mm"
     inkscape:current-layer="layer1"
     inkscape:document-rotation="0"
     showgrid="false"
     units="px"
     inkscape:window-width="1920"
     inkscape:window-height="1051"
     inkscape:window-x="0"
     inkscape:window-y="0"
     inkscape:window-maximized="1"
     inkscape:object-nodes="false"
     inkscape:snap-intersection-paths="true"
     inkscape:snap-smooth-nodes="false"
     inkscape:snap-object-midpoints="true"
     inkscape:snap-bbox="true" />
  <metadata
     id="metadata1713">
    <rdf:RDF>
      <cc:Work
         rdf:about="">
        <dc:format>image/svg+xml</dc:format>
        <dc:type
           rdf:resource="http://purl.org/dc/dcmitype/StillImage" />
        <dc:title />
      </cc:Work>
    </rdf:RDF>
  </metadata>
  <g
     inkscape:label="Layer 1"
     inkscape:groupmode="layer"
     id="layer1"
     style="display:inline">
    <g
       inkscape:label="Rendered Gears"
       transform="matrix(1.2550294,0,0,1.2550294,33.866667,33.866667)"
       id="g3168"
       style="fill:#b5b5b5;fill-opacity:0;stroke:#000000;stroke-opacity:1;stroke-width:1.2390148;stroke-miterlimit:4;stroke-dasharray:none">
      <circle
         style="fill:#b5b5b5;fill-opacity:0;stroke:#000000;stroke-width:1.2390148;stroke-opacity:1;stroke-miterlimit:4;stroke-dasharray:none"
         id="path3166"
         cx="0"
         cy="0"
         r="8.4269791" />
    </g>
    <path
       style="display:inline;fill:none;fill-opacity:0.397469;stroke:#000000;stroke-width:1.14100913;stroke-opacity:1;stroke-miterlimit:4;stroke-dasharray:none"
       d="m 20.7897,-3.33101 4.8026,-0.7695 v 8.20102 l -4.8026,-0.7695 -2.0126,6.19403 4.3378,2.20036 c -4.8205,6.6348 0,0 -4.8205,6.6348 l -3.4331,-3.4455 -5.26895,3.8282 2.21595,4.3297 c -7.79965,2.5343 0,0 -7.79965,2.5343 L 3.25639,20.8015 h -6.51278 l -0.75226,4.8054 c -7.79965,-2.5343 0,0 -7.79965,-2.5343 l 2.21595,-4.3297 -5.26895,-3.8282 -3.4331,3.4455 c -4.8205,-6.6348 0,0 -4.8205,-6.6348 l 4.3378,-2.20036 -2.0126,-6.19403 -4.8026,0.7695 c 0,-8.20102 0,0 0,-8.20102 l 4.8026,0.7695 2.0126,-6.19403 -4.3378,-2.20036 c 2.843446,-4.179508 2.890088,-4.180053 4.8205,-6.6348 l 3.4331,3.4455 5.26895,-3.8282 c 0,0 -1.563381,-2.845557 -2.21595,-4.3297 l 7.79965,-2.5343 0.75226,4.8054 h 6.51278 l 0.75226,-4.8054 7.79965,2.5343 -2.21595,4.3297 5.26895,3.8282 3.4331,-3.4455 4.8205,6.6348 -4.3378,2.20036 z"
       id="path3164"
       sodipodi:nodetypes="ccccccccccccccccccccccccccccccccccccccccc"
       transform="matrix(1.2550294,0,0,1.2550294,33.866667,33.866667)" />
    <path
       style="fill:#b54545;fill-opacity:0;stroke:none;stroke-width:19.0895;stroke-linecap:round;stroke-linejoin:round;stroke-opacity:1;paint-order:markers stroke fill"
       d="m 90.995723,242.68001 c -9.444926,-3.054 -17.267315,-5.63644 -17.383083,-5.73877 -0.115764,-0.10232 2.106481,-4.71382 4.938327,-10.24778 l 5.148814,-10.06174 -12.886198,-9.38366 c -7.087412,-5.16101 -13.057262,-9.38365 -13.266343,-9.38365 -0.209077,0 -3.935302,3.54995 -8.280501,7.88878 l -7.900361,7.88879 -1.992763,-2.71175 c -1.09602,-1.49147 -5.977058,-8.18742 -10.846752,-14.8799 l -8.853988,-12.16814 10.028804,-4.99436 c 5.515842,-2.74689 10.028803,-5.26297 10.028803,-5.59128 0,-0.65711 -9.44047,-29.99276 -9.752273,-30.30456 -0.106642,-0.10664 -5.058642,0.60251 -11.004444,1.5759 -5.945802,0.97338 -10.9810129,1.7718 -11.1893568,1.77426 -0.208344,0.002 -0.3788072,-8.29573 -0.3788072,-18.44043 v -18.4449 l 1.1364216,0.25916 c 1.7709544,0.40388 20.0620074,3.29561 20.8456634,3.29561 0.46974,0 2.279378,-4.86421 5.520796,-14.839611 2.6521,-8.161785 4.822,-15.07434 4.822,-15.361223 0,-0.286889 -4.261581,-2.721892 -9.47018,-5.411125 -5.208599,-2.689233 -9.664478,-5.073718 -9.901954,-5.298851 -0.641735,-0.608395 18.97544,-28.365692 20.878296,-29.541721 0.233221,-0.144139 3.945228,3.404729 8.248904,7.886373 l 7.824866,8.148442 13.05458,-9.482425 C 77.545017,43.896115 83.48576,39.576866 83.566653,39.513118 83.647541,39.44937 81.54761,35.306534 78.900142,30.306815 76.252673,25.307096 74.027292,20.701217 73.954849,20.071527 73.830903,18.994199 74.830763,18.59966 90.898224,13.385774 100.28953,10.3383 108.05638,7.9279723 108.1579,8.0294905 c 0.10152,0.1015182 0.94716,5.0698865 1.8792,11.0408175 l 1.69463,10.85624 16.22172,0.133196 16.22171,0.133196 0.53265,-3.163653 c 0.29295,-1.74001 1.03988,-6.512531 1.65984,-10.605604 0.61996,-4.093071 1.28308,-7.6941728 1.47361,-8.0024471 0.23435,-0.3791837 5.93262,1.2610736 17.61503,5.0705231 l 17.26863,5.631022 -5.1022,9.880056 c -2.8062,5.434031 -5.03524,10.072215 -4.95342,10.307076 0.0818,0.23486 5.94245,4.64004 13.02359,9.789288 l 12.87482,9.362267 8.08585,-8.049091 8.08585,-8.049092 8.83883,12.197679 c 4.86136,6.708723 9.69979,13.39417 10.75207,14.856553 l 1.91323,2.658873 -10.16527,5.087482 c -6.20983,3.10787 -10.07945,5.323534 -9.94469,5.694123 0.12133,0.333649 2.3574,7.251658 4.96905,15.37335 4.14741,12.897565 4.87632,14.764155 5.75861,14.746515 0.55558,-0.0111 5.55584,-0.75383 11.11168,-1.65048 l 10.10152,-1.63028 0.13266,18.15002 c 0.0729,9.98251 0.0592,18.22346 -0.0306,18.31323 -0.0898,0.0898 -5.03339,-0.61841 -10.98585,-1.57372 -5.95246,-0.9553 -10.97364,-1.57513 -11.15817,-1.37741 -0.37879,0.40585 -9.63464,28.78602 -9.72172,29.80856 -0.0315,0.36998 4.3173,2.93405 9.90168,5.83807 l 9.95785,5.17835 -10.69919,14.75431 -10.69918,14.75431 -7.97194,-7.96026 c -7.62801,-7.61685 -8.02092,-7.92997 -9.10764,-7.25817 -1.02312,0.63248 -24.5202,17.5618 -25.12684,18.10354 -0.1389,0.12404 2.07943,4.75318 4.9296,10.28699 5.0625,9.82922 5.15578,10.07149 4.04061,10.49506 -0.62784,0.23846 -8.47346,2.82219 -17.43472,5.74163 -15.6848,5.10986 -16.30202,5.26773 -16.5297,4.22782 -0.27151,-1.24007 -3.29006,-20.70184 -3.29006,-21.2123 0,-0.18564 -7.31955,-0.27755 -16.26565,-0.20425 l -16.26566,0.13326 -1.64661,10.57945 c -0.90563,5.81869 -1.7115,10.84443 -1.79082,11.1683 -0.0931,0.38032 -6.22562,-1.37756 -17.316807,-4.96388 z m 46.972097,-75.14742 c 2.22233,-0.52789 6.19981,-2.03444 8.83883,-3.34789 4.10738,-2.04425 5.52868,-3.11854 9.87157,-7.46143 4.34535,-4.34535 5.4157,-5.76185 7.45926,-9.87157 3.38815,-6.81375 4.49176,-11.46732 4.49176,-18.94036 0,-4.57711 -0.2629,-7.05011 -1.07387,-10.10152 -3.7491,-14.10664 -13.87883,-24.579255 -28.07232,-29.022593 -5.0506,-1.581106 -13.80645,-1.949887 -19.39755,-0.816981 -15.43064,3.126644 -27.478073,14.390384 -31.676878,29.616254 -1.410769,5.11579 -1.299849,16.16971 0.214819,21.40794 6.20215,21.44916 27.451449,33.73862 49.344379,28.53815 z"
       id="path850"
       transform="scale(0.26458333)" />
    <path
       style="fill:#b54545;fill-opacity:0;stroke:none;stroke-width:19.0895;stroke-linecap:round;stroke-linejoin:round;stroke-opacity:1;paint-order:markers stroke fill"
       d="m 90.995723,242.68001 c -9.444926,-3.054 -17.267315,-5.63644 -17.383083,-5.73877 -0.115764,-0.10232 2.106481,-4.71382 4.938327,-10.24778 l 5.148814,-10.06174 -12.886198,-9.38366 c -7.087412,-5.16101 -13.057262,-9.38365 -13.266343,-9.38365 -0.209077,0 -3.935302,3.54995 -8.280501,7.88878 l -7.900361,7.88879 -1.992763,-2.71175 c -1.09602,-1.49147 -5.977058,-8.18742 -10.846752,-14.8799 l -8.853988,-12.16814 10.028804,-4.99436 c 5.515842,-2.74689 10.028803,-5.26297 10.028803,-5.59128 0,-0.65711 -9.44047,-29.99276 -9.752273,-30.30456 -0.106642,-0.10664 -5.058642,0.60251 -11.004444,1.5759 -5.945802,0.97338 -10.9810129,1.7718 -11.1893568,1.77426 -0.208344,0.002 -0.3788072,-8.29573 -0.3788072,-18.44043 v -18.4449 l 1.1364216,0.25916 c 1.7709544,0.40388 20.0620074,3.29561 20.8456634,3.29561 0.46974,0 2.279378,-4.86421 5.520796,-14.839611 2.6521,-8.161785 4.822,-15.07434 4.822,-15.361223 0,-0.286889 -4.261581,-2.721892 -9.47018,-5.411125 -5.208599,-2.689233 -9.664478,-5.073718 -9.901954,-5.298851 -0.641735,-0.608395 18.97544,-28.365692 20.878296,-29.541721 0.233221,-0.144139 3.945228,3.404729 8.248904,7.886373 l 7.824866,8.148442 13.05458,-9.482425 C 77.545017,43.896115 83.48576,39.576866 83.566653,39.513118 83.647541,39.44937 81.54761,35.306534 78.900142,30.306815 76.252673,25.307096 74.027292,20.701217 73.954849,20.071527 73.830903,18.994199 74.830763,18.59966 90.898224,13.385774 100.28953,10.3383 108.05638,7.9279723 108.1579,8.0294905 c 0.10152,0.1015182 0.94716,5.0698865 1.8792,11.0408175 l 1.69463,10.85624 16.22172,0.133196 16.22171,0.133196 0.53265,-3.163653 c 0.29295,-1.74001 1.03988,-6.512531 1.65984,-10.605604 0.61996,-4.093071 1.28308,-7.6941728 1.47361,-8.0024471 0.23435,-0.3791837 5.93262,1.2610736 17.61503,5.0705231 l 17.26863,5.631022 -5.1022,9.880056 c -2.8062,5.434031 -5.03524,10.072215 -4.95342,10.307076 0.0818,0.23486 5.94245,4.64004 13.02359,9.789288 l 12.87482,9.362267 8.08585,-8.049091 8.08585,-8.049092 8.83883,12.197679 c 4.86136,6.708723 9.69979,13.39417 10.75207,14.856553 l 1.91323,2.658873 -10.16527,5.087482 c -6.20983,3.10787 -10.07945,5.323534 -9.94469,5.694123 0.12133,0.333649 2.3574,7.251658 4.96905,15.37335 4.14741,12.897565 4.87632,14.764155 5.75861,14.746515 0.55558,-0.0111 5.55584,-0.75383 11.11168,-1.65048 l 10.10152,-1.63028 0.13266,18.15002 c 0.0729,9.98251 0.0592,18.22346 -0.0306,18.31323 -0.0898,0.0898 -5.03339,-0.61841 -10.98585,-1.57372 -5.95246,-0.9553 -10.97364,-1.57513 -11.15817,-1.37741 -0.37879,0.40585 -9.63464,28.78602 -9.72172,29.80856 -0.0315,0.36998 4.3173,2.93405 9.90168,5.83807 l 9.95785,5.17835 -10.69919,14.75431 -10.69918,14.75431 -7.97194,-7.96026 c -7.62801,-7.61685 -8.02092,-7.92997 -9.10764,-7.25817 -1.02312,0.63248 -24.5202,17.5618 -25.12684,18.10354 -0.1389,0.12404 2.07943,4.75318 4.9296,10.28699 5.0625,9.82922 5.15578,10.07149 4.04061,10.49506 -0.62784,0.23846 -8.47346,2.82219 -17.43472,5.74163 -15.6848,5.10986 -16.30202,5.26773 -16.5297,4.22782 -0.27151,-1.24007 -3.29006,-20.70184 -3.29006,-21.2123 0,-0.18564 -7.31955,-0.27755 -16.26565,-0.20425 l -16.26566,0.13326 -1.64661,10.57945 c -0.90563,5.81869 -1.7115,10.84443 -1.79082,11.1683 -0.0931,0.38032 -6.22562,-1.37756 -17.316807,-4.96388 z m 46.972097,-75.14742 c 2.22233,-0.52789 6.19981,-2.03444 8.83883,-3.34789 4.10738,-2.04425 5.52868,-3.11854 9.87157,-7.46143 4.34535,-4.34535 5.4157,-5.76185 7.45926,-9.87157 3.38815,-6.81375 4.49176,-11.46732 4.49176,-18.94036 0,-4.57711 -0.2629,-7.05011 -1.07387,-10.10152 -3.7491,-14.10664 -13.87883,-24.579255 -28.07232,-29.022593 -5.0506,-1.581106 -13.80645,-1.949887 -19.39755,-0.816981 -15.43064,3.126644 -27.478073,14.390384 -31.676878,29.616254 -1.410769,5.11579 -1.299849,16.16971 0.214819,21.40794 6.20215,21.44916 27.451449,33.73862 49.344379,28.53815 z"
       id="path868"
       transform="scale(0.26458333)" />
    <path
       style="fill:#a8a8a8;fill-opacity:0.931645;stroke:none;stroke-width:19.0895;stroke-linecap:round;stroke-linejoin:round;stroke-opacity:1;paint-order:markers stroke fill"
       d="m 90.995723,242.68001 c -9.444926,-3.054 -17.267315,-5.63644 -17.383083,-5.73877 -0.115764,-0.10232 2.106481,-4.71382 4.938327,-10.24778 l 5.148814,-10.06174 -12.886198,-9.38366 c -7.087412,-5.16101 -13.057262,-9.38365 -13.266343,-9.38365 -0.209077,0 -3.935302,3.54995 -8.280501,7.88878 l -7.900361,7.88879 -1.992763,-2.71175 c -1.09602,-1.49147 -5.977058,-8.18742 -10.846752,-14.8799 l -8.853988,-12.16814 10.028804,-4.99436 c 5.515842,-2.74689 10.028803,-5.26297 10.028803,-5.59128 0,-0.65711 -9.44047,-29.99276 -9.752273,-30.30456 -0.106642,-0.10664 -5.058642,0.60251 -11.004444,1.5759 -5.945802,0.97338 -10.9810129,1.7718 -11.1893568,1.77426 -0.208344,0.002 -0.3788072,-8.29573 -0.3788072,-18.44043 v -18.4449 l 1.1364216,0.25916 c 1.7709544,0.40388 20.0620074,3.29561 20.8456634,3.29561 0.46974,0 2.279378,-4.86421 5.520796,-14.839611 2.6521,-8.161785 4.822,-15.07434 4.822,-15.361223 0,-0.286889 -4.261581,-2.721892 -9.47018,-5.411125 -5.208599,-2.689233 -9.664478,-5.073718 -9.901954,-5.298851 -0.641735,-0.608395 18.97544,-28.365692 20.878296,-29.541721 0.233221,-0.144139 3.945228,3.404729 8.248904,7.886373 l 7.824866,8.148442 13.05458,-9.482425 C 77.545017,43.896115 83.48576,39.576866 83.566653,39.513118 83.647541,39.44937 81.54761,35.306534 78.900142,30.306815 76.252673,25.307096 74.027292,20.701217 73.954849,20.071527 73.830903,18.994199 74.830763,18.59966 90.898224,13.385774 100.28953,10.3383 108.05638,7.9279723 108.1579,8.0294905 c 0.10152,0.1015182 0.94716,5.0698865 1.8792,11.0408175 l 1.69463,10.85624 16.22172,0.133196 16.22171,0.133196 0.53265,-3.163653 c 0.29295,-1.74001 1.03988,-6.512531 1.65984,-10.605604 0.61996,-4.093071 1.28308,-7.6941728 1.47361,-8.0024471 0.23435,-0.3791837 5.93262,1.2610736 17.61503,5.0705231 l 17.26863,5.631022 -5.1022,9.880056 c -2.8062,5.434031 -5.03524,10.072215 -4.95342,10.307076 0.0818,0.23486 5.94245,4.64004 13.02359,9.789288 l 12.87482,9.362267 8.08585,-8.049091 8.08585,-8.049092 8.83883,12.197679 c 4.86136,6.708723 9.69979,13.39417 10.75207,14.856553 l 1.91323,2.658873 -10.16527,5.087482 c -6.20983,3.10787 -10.07945,5.323534 -9.94469,5.694123 0.12133,0.333649 2.3574,7.251658 4.96905,15.37335 4.14741,12.897565 4.87632,14.764155 5.75861,14.746515 0.55558,-0.0111 5.55584,-0.75383 11.11168,-1.65048 l 10.10152,-1.63028 0.13266,18.15002 c 0.0729,9.98251 0.0592,18.22346 -0.0306,18.31323 -0.0898,0.0898 -5.03339,-0.61841 -10.98585,-1.57372 -5.95246,-0.9553 -10.97364,-1.57513 -11.15817,-1.37741 -0.37879,0.40585 -9.63464,28.78602 -9.72172,29.80856 -0.0315,0.36998 4.3173,2.93405 9.90168,5.83807 l 9.95785,5.17835 -10.69919,14.75431 -10.69918,14.75431 -7.97194,-7.96026 c -7.62801,-7.61685 -8.02092,-7.92997 -9.10764,-7.25817 -1.02312,0.63248 -24.5202,17.5618 -25.12684,18.10354 -0.1389,0.12404 2.07943,4.75318 4.9296,10.28699 5.0625,9.82922 5.15578,10.07149 4.04061,10.49506 -0.62784,0.23846 -8.47346,2.82219 -17.43472,5.74163 -15.6848,5.10986 -16.30202,5.26773 -16.5297,4.22782 -0.27151,-1.24007 -3.29006,-20.70184 -3.29006,-21.2123 0,-0.18564 -7.31955,-0.27755 -16.26565,-0.20425 l -16.26566,0.13326 -1.64661,10.57945 c -0.90563,5.81869 -1.7115,10.84443 -1.79082,11.1683 -0.0931,0.38032 -6.22562,-1.37756 -17.316807,-4.96388 z m 46.972097,-75.14742 c 2.22233,-0.52789 6.19981,-2.03444 8.83883,-3.34789 4.10738,-2.04425 5.52868,-3.11854 9.87157,-7.46143 4.34535,-4.34535 5.4157,-5.76185 7.45926,-9.87157 3.38815,-6.81375 4.49176,-11.46732 4.49176,-18.94036 0,-4.57711 -0.2629,-7.05011 -1.07387,-10.10152 -3.7491,-14.10664 -13.87883,-24.579255 -28.07232,-29.022593 -5.0506,-1.581106 -13.80645,-1.949887 -19.39755,-0.816981 -15.43064,3.126644 -27.478073,14.390384 -31.676878,29.616254 -1.410769,5.11579 -1.299849,16.16971 0.214819,21.40794 6.20215,21.44916 27.451449,33.73862 49.344379,28.53815 z"
       id="path872"
       transform="scale(0.26458333)" />
  </g>
</svg>
