<?xml version="1.0" encoding="UTF-8" standalone="no"?>
<svg
   xmlns:dc="http://purl.org/dc/elements/1.1/"
   xmlns:cc="http://creativecommons.org/ns#"
   xmlns:rdf="http://www.w3.org/1999/02/22-rdf-syntax-ns#"
   xmlns:svg="http://www.w3.org/2000/svg"
   xmlns="http://www.w3.org/2000/svg"
   xmlns:sodipodi="http://sodipodi.sourceforge.net/DTD/sodipodi-0.dtd"
   xmlns:inkscape="http://www.inkscape.org/namespaces/inkscape"
   id="svg1716"
   version="1.1"
   viewBox="0 0 67.733331 67.733331"
   height="256"
   width="256"
   sodipodi:docname="settings_icon.svg"
   inkscape:version="1.0.1 (3bc2e813f5, 2020-09-07)"
   inkscape:export-filename="/home/muho/Documents/Programming/git/Budget-App/assets/icons/settings_icon.png"
   inkscape:export-xdpi="80.386597"
   inkscape:export-ydpi="80.386597">
  <defs
     id="defs1710" />
  <sodipodi:namedview
     id="base"
     pagecolor="#ffffff"
     bordercolor="#666666"
     borderopacity="1.0"
     inkscape:pageopacity="0.0"
     inkscape:pageshadow="2"
     inkscape:zoom="0.70000001"
     inkscape:cx="16.46454"
     inkscape:cy="193.93828"
     inkscape:document-units="mm"
     inkscape:current-layer="g3168"
     inkscape:document-rotation="0"
     showgrid="false"
     units="px"
     inkscape:window-width="1920"
     inkscape:window-height="1051"
     inkscape:window-x="0"
     inkscape:window-y="0"
     inkscape:window-maximized="1"
     inkscape:object-nodes="false"
     inkscape:snap-intersection-paths="true"
     inkscape:snap-smooth-nodes="false"
     inkscape:snap-object-midpoints="true"
     inkscape:snap-bbox="true" />
  <metadata
     id="metadata1713">
    <rdf:RDF>
      <cc:Work
         rdf:about="">
        <dc:format>image/svg+xml</dc:format>
        <dc:type
           rdf:resource="http://purl.org/dc/dcmitype/StillImage" />
        <dc:title />
      </cc:Work>
    </rdf:RDF>
  </metadata>
  <g
     inkscape:label="Layer 1"
     inkscape:groupmode="layer"
     id="layer1"
     style="display:inline">
    <g
       inkscape:label="Rendered Gears"
       transform="matrix(1.2550294,0,0,1.2550294,33.866667,33.866667)"
       id="g3168"
       style="display:inline;fill:#b5b5b5;fill-opacity:0;stroke:#000000;stroke-width:1.23901;stroke-miterlimit:4;stroke-dasharray:none;stroke-opacity:1">
      <circle
         style="fill:#b5b5b5;fill-opacity:0;stroke:#000000;stroke-width:2.43420592;stroke-miterlimit:4;stroke-dasharray:none;stroke-opacity:1"
         id="path3166"
         cx="0"
         cy="0"
         r="8.4269791" />
    </g>
    <path
       style="display:inline;fill:none;fill-opacity:0.397469;stroke:#000000;stroke-width:2.65491789;stroke-miterlimit:4;stroke-dasharray:none;stroke-opacity:1"
       d="m 20.7897,-3.33101 4.8026,-0.7695 v 8.20102 l -4.8026,-0.7695 -2.0126,6.19403 4.3378,2.20036 c -4.8205,6.6348 0,0 -4.8205,6.6348 l -3.4331,-3.4455 -5.26895,3.8282 2.21595,4.3297 c -7.79965,2.5343 0,0 -7.79965,2.5343 L 3.25639,20.8015 h -6.51278 l -0.75226,4.8054 c -7.79965,-2.5343 0,0 -7.79965,-2.5343 l 2.21595,-4.3297 -5.26895,-3.8282 -3.4331,3.4455 c -4.8205,-6.6348 0,0 -4.8205,-6.6348 l 4.3378,-2.20036 -2.0126,-6.19403 -4.8026,0.7695 c 0,-8.20102 0,0 0,-8.20102 l 4.8026,0.7695 2.0126,-6.19403 -4.3378,-2.20036 c 2.843446,-4.179508 2.890088,-4.180053 4.8205,-6.6348 l 3.4331,3.4455 5.26895,-3.8282 c 0,0 -1.563381,-2.845557 -2.21595,-4.3297 l 7.79965,-2.5343 0.75226,4.8054 h 6.51278 l 0.75226,-4.8054 7.79965,2.5343 -2.21595,4.3297 5.26895,3.8282 3.4331,-3.4455 4.8205,6.6348 -4.3378,2.20036 z"
       id="path3164"
       sodipodi:nodetypes="ccccccccccccccccccccccccccccccccccccccccc"
       transform="matrix(1.2550294,0,0,1.2550294,33.866667,33.866667)" />
    <path
       style="display:inline;fill:#b54545;fill-opacity:0;stroke:none;stroke-width:19.0895;stroke-linecap:round;stroke-linejoin:round;stroke-opacity:1;paint-order:markers stroke fill"
       d="m 90.995723,242.68001 c -9.444926,-3.054 -17.267315,-5.63644 -17.383083,-5.73877 -0.115764,-0.10232 2.106481,-4.71382 4.938327,-10.24778 l 5.148814,-10.06174 -12.886198,-9.38366 c -7.087412,-5.16101 -13.057262,-9.38365 -13.266343,-9.38365 -0.209077,0 -3.935302,3.54995 -8.280501,7.88878 l -7.900361,7.88879 -1.992763,-2.71175 c -1.09602,-1.49147 -5.977058,-8.18742 -10.846752,-14.8799 l -8.853988,-12.16814 10.028804,-4.99436 c 5.515842,-2.74689 10.028803,-5.26297 10.028803,-5.59128 0,-0.65711 -9.44047,-29.99276 -9.752273,-30.30456 -0.106642,-0.10664 -5.058642,0.60251 -11.004444,1.5759 -5.945802,0.97338 -10.9810129,1.7718 -11.1893568,1.77426 -0.208344,0.002 -0.3788072,-8.29573 -0.3788072,-18.44043 v -18.4449 l 1.1364216,0.25916 c 1.7709544,0.40388 20.0620074,3.29561 20.8456634,3.29561 0.46974,0 2.279378,-4.86421 5.520796,-14.839611 2.6521,-8.161785 4.822,-15.07434 4.822,-15.361223 0,-0.286889 -4.261581,-2.721892 -9.47018,-5.411125 -5.208599,-2.689233 -9.664478,-5.073718 -9.901954,-5.298851 -0.641735,-0.608395 18.97544,-28.365692 20.878296,-29.541721 0.233221,-0.144139 3.945228,3.404729 8.248904,7.886373 l 7.824866,8.148442 13.05458,-9.482425 C 77.545017,43.896115 83.48576,39.576866 83.566653,39.513118 83.647541,39.44937 81.54761,35.306534 78.900142,30.306815 76.252673,25.307096 74.027292,20.701217 73.954849,20.071527 73.830903,18.994199 74.830763,18.59966 90.898224,13.385774 100.28953,10.3383 108.05638,7.9279723 108.1579,8.0294905 c 0.10152,0.1015182 0.94716,5.0698865 1.8792,11.0408175 l 1.69463,10.85624 16.22172,0.133196 16.22171,0.133196 0.53265,-3.163653 c 0.29295,-1.74001 1.03988,-6.512531 1.65984,-10.605604 0.61996,-4.093071 1.28308,-7.6941728 1.47361,-8.0024471 0.23435,-0.3791837 5.93262,1.2610736 17.61503,5.0705231 l 17.26863,5.631022 -5.1022,9.880056 c -2.8062,5.434031 -5.03524,10.072215 -4.95342,10.307076 0.0818,0.23486 5.94245,4.64004 13.02359,9.789288 l 12.87482,9.362267 8.08585,-8.049091 8.08585,-8.049092 8.83883,12.197679 c 4.86136,6.708723 9.69979,13.39417 10.75207,14.856553 l 1.91323,2.658873 -10.16527,5.087482 c -6.20983,3.10787 -10.07945,5.323534 -9.94469,5.694123 0.12133,0.333649 2.3574,7.251658 4.96905,15.37335 4.14741,12.897565 4.87632,14.764155 5.75861,14.746515 0.55558,-0.0111 5.55584,-0.75383 11.11168,-1.65048 l 10.10152,-1.63028 0.13266,18.15002 c 0.0729,9.98251 0.0592,18.22346 -0.0306,18.31323 -0.0898,0.0898 -5.03339,-0.61841 -10.98585,-1.57372 -5.95246,-0.9553 -10.97364,-1.57513 -11.15817,-1.37741 -0.37879,0.40585 -9.63464,28.78602 -9.72172,29.80856 -0.0315,0.36998 4.3173,2.93405 9.90168,5.83807 l 9.95785,5.17835 -10.69919,14.75431 -10.69918,14.75431 -7.97194,-7.96026 c -7.62801,-7.61685 -8.02092,-7.92997 -9.10764,-7.25817 -1.02312,0.63248 -24.5202,17.5618 -25.12684,18.10354 -0.1389,0.12404 2.07943,4.75318 4.9296,10.28699 5.0625,9.82922 5.15578,10.07149 4.04061,10.49506 -0.62784,0.23846 -8.47346,2.82219 -17.43472,5.74163 -15.6848,5.10986 -16.30202,5.26773 -16.5297,4.22782 -0.27151,-1.24007 -3.29006,-20.70184 -3.29006,-21.2123 0,-0.18564 -7.31955,-0.27755 -16.26565,-0.20425 l -16.26566,0.13326 -1.64661,10.57945 c -0.90563,5.81869 -1.7115,10.84443 -1.79082,11.1683 -0.0931,0.38032 -6.22562,-1.37756 -17.316807,-4.96388 z m 46.972097,-75.14742 c 2.22233,-0.52789 6.19981,-2.03444 8.83883,-3.34789 4.10738,-2.04425 5.52868,-3.11854 9.87157,-7.46143 4.34535,-4.34535 5.4157,-5.76185 7.45926,-9.87157 3.38815,-6.81375 4.49176,-11.46732 4.49176,-18.94036 0,-4.57711 -0.2629,-7.05011 -1.07387,-10.10152 -3.7491,-14.10664 -13.87883,-24.579255 -28.07232,-29.022593 -5.0506,-1.581106 -13.80645,-1.949887 -19.39755,-0.816981 -15.43064,3.126644 -27.478073,14.390384 -31.676878,29.616254 -1.410769,5.11579 -1.299849,16.16971 0.214819,21.40794 6.20215,21.44916 27.451449,33.73862 49.344379,28.53815 z"
       id="path850"
       transform="scale(0.26458333)" />
    <path
       style="display:inline;fill:#b54545;fill-opacity:0;stroke:none;stroke-width:19.0895;stroke-linecap:round;stroke-linejoin:round;stroke-opacity:1;paint-order:markers stroke fill"
       d="m 90.995723,242.68001 c -9.444926,-3.054 -17.267315,-5.63644 -17.383083,-5.73877 -0.115764,-0.10232 2.106481,-4.71382 4.938327,-10.24778 l 5.148814,-10.06174 -12.886198,-9.38366 c -7.087412,-5.16101 -13.057262,-9.38365 -13.266343,-9.38365 -0.209077,0 -3.935302,3.54995 -8.280501,7.88878 l -7.900361,7.88879 -1.992763,-2.71175 c -1.09602,-1.49147 -5.977058,-8.18742 -10.846752,-14.8799 l -8.853988,-12.16814 10.028804,-4.99436 c 5.515842,-2.74689 10.028803,-5.26297 10.028803,-5.59128 0,-0.65711 -9.44047,-29.99276 -9.752273,-30.30456 -0.106642,-0.10664 -5.058642,0.60251 -11.004444,1.5759 -5.945802,0.97338 -10.9810129,1.7718 -11.1893568,1.77426 -0.208344,0.002 -0.3788072,-8.29573 -0.3788072,-18.44043 v -18.4449 l 1.1364216,0.25916 c 1.7709544,0.40388 20.0620074,3.29561 20.8456634,3.29561 0.46974,0 2.279378,-4.86421 5.520796,-14.839611 2.6521,-8.161785 4.822,-15.07434 4.822,-15.361223 0,-0.286889 -4.261581,-2.721892 -9.47018,-5.411125 -5.208599,-2.689233 -9.664478,-5.073718 -9.901954,-5.298851 -0.641735,-0.608395 18.97544,-28.365692 20.878296,-29.541721 0.233221,-0.144139 3.945228,3.404729 8.248904,7.886373 l 7.824866,8.148442 13.05458,-9.482425 C 77.545017,43.896115 83.48576,39.576866 83.566653,39.513118 83.647541,39.44937 81.54761,35.306534 78.900142,30.306815 76.252673,25.307096 74.027292,20.701217 73.954849,20.071527 73.830903,18.994199 74.830763,18.59966 90.898224,13.385774 100.28953,10.3383 108.05638,7.9279723 108.1579,8.0294905 c 0.10152,0.1015182 0.94716,5.0698865 1.8792,11.0408175 l 1.69463,10.85624 16.22172,0.133196 16.22171,0.133196 0.53265,-3.163653 c 0.29295,-1.74001 1.03988,-6.512531 1.65984,-10.605604 0.61996,-4.093071 1.28308,-7.6941728 1.47361,-8.0024471 0.23435,-0.3791837 5.93262,1.2610736 17.61503,5.0705231 l 17.26863,5.631022 -5.1022,9.880056 c -2.8062,5.434031 -5.03524,10.072215 -4.95342,10.307076 0.0818,0.23486 5.94245,4.64004 13.02359,9.789288 l 12.87482,9.362267 8.08585,-8.049091 8.08585,-8.049092 8.83883,12.197679 c 4.86136,6.708723 9.69979,13.39417 10.75207,14.856553 l 1.91323,2.658873 -10.16527,5.087482 c -6.20983,3.10787 -10.07945,5.323534 -9.94469,5.694123 0.12133,0.333649 2.3574,7.251658 4.96905,15.37335 4.14741,12.897565 4.87632,14.764155 5.75861,14.746515 0.55558,-0.0111 5.55584,-0.75383 11.11168,-1.65048 l 10.10152,-1.63028 0.13266,18.15002 c 0.0729,9.98251 0.0592,18.22346 -0.0306,18.31323 -0.0898,0.0898 -5.03339,-0.61841 -10.98585,-1.57372 -5.95246,-0.9553 -10.97364,-1.57513 -11.15817,-1.37741 -0.37879,0.40585 -9.63464,28.78602 -9.72172,29.80856 -0.0315,0.36998 4.3173,2.93405 9.90168,5.83807 l 9.95785,5.17835 -10.69919,14.75431 -10.69918,14.75431 -7.97194,-7.96026 c -7.62801,-7.61685 -8.02092,-7.92997 -9.10764,-7.25817 -1.02312,0.63248 -24.5202,17.5618 -25.12684,18.10354 -0.1389,0.12404 2.07943,4.75318 4.9296,10.28699 5.0625,9.82922 5.15578,10.07149 4.04061,10.49506 -0.62784,0.23846 -8.47346,2.82219 -17.43472,5.74163 -15.6848,5.10986 -16.30202,5.26773 -16.5297,4.22782 -0.27151,-1.24007 -3.29006,-20.70184 -3.29006,-21.2123 0,-0.18564 -7.31955,-0.27755 -16.26565,-0.20425 l -16.26566,0.13326 -1.64661,10.57945 c -0.90563,5.81869 -1.7115,10.84443 -1.79082,11.1683 -0.0931,0.38032 -6.22562,-1.37756 -17.316807,-4.96388 z m 46.972097,-75.14742 c 2.22233,-0.52789 6.19981,-2.03444 8.83883,-3.34789 4.10738,-2.04425 5.52868,-3.11854 9.87157,-7.46143 4.34535,-4.34535 5.4157,-5.76185 7.45926,-9.87157 3.38815,-6.81375 4.49176,-11.46732 4.49176,-18.94036 0,-4.57711 -0.2629,-7.05011 -1.07387,-10.10152 -3.7491,-14.10664 -13.87883,-24.579255 -28.07232,-29.022593 -5.0506,-1.581106 -13.80645,-1.949887 -19.39755,-0.816981 -15.43064,3.126644 -27.478073,14.390384 -31.676878,29.616254 -1.410769,5.11579 -1.299849,16.16971 0.214819,21.40794 6.20215,21.44916 27.451449,33.73862 49.344379,28.53815 z"
       id="path868"
       transform="scale(0.26458333)" />
    <path
       style="display:inline;fill:#a8a8a8;fill-opacity:0.931645;stroke:none;stroke-width:23.851;stroke-linecap:round;stroke-linejoin:round;stroke-miterlimit:4;stroke-dasharray:none;stroke-opacity:1;paint-order:markers stroke fill"
       d="m 24.075951,64.209085 c -2.49897,-0.808037 -4.568643,-1.491308 -4.599274,-1.518383 -0.03063,-0.02707 0.55734,-1.247198 1.306599,-2.711391 l 1.362291,-2.662169 -3.409473,-2.48276 c -1.875211,-1.365517 -3.454734,-2.482758 -3.510054,-2.482758 -0.05532,0 -1.041215,0.939258 -2.190882,2.08724 l -2.090304,2.087242 -0.527252,-0.717483 C 10.127614,55.414005 8.8361723,53.642368 7.5477324,51.871649 L 5.2051148,48.652162 7.8585691,47.330738 c 1.4593999,-0.726782 2.6534539,-1.392494 2.6534539,-1.47936 0,-0.17386 -2.4977908,-7.935584 -2.5802886,-8.018081 -0.028216,-0.02822 -1.3384324,0.159414 -2.9115925,0.416957 -1.5731601,0.25754 -2.9053929,0.468788 -2.9605173,0.469439 -0.055124,5.3e-4 -0.100226,-2.194912 -0.100226,-4.87903 V 28.96045 l 0.3006782,0.06857 c 0.468565,0.10686 5.3080727,0.871964 5.515415,0.871964 0.1242854,0 0.6030854,-1.286989 1.4607106,-3.926314 0.7017015,-2.159472 1.2758206,-3.988419 1.2758206,-4.064323 0,-0.07591 -1.1275431,-0.720168 -2.5056515,-1.431694 -1.3781085,-0.711526 -2.5570598,-1.342421 -2.619892,-1.401988 -0.1697924,-0.160971 5.0205855,-7.505089 5.5240495,-7.816246 0.06171,-0.03814 1.043841,0.900834 2.182522,2.086602 l 2.070329,2.155942 3.454024,-2.508891 c 1.899715,-1.379891 3.471536,-2.522692 3.492939,-2.539559 0.0214,-0.01687 -0.534205,-1.1129917 -1.234681,-2.435834 C 20.175186,6.6958357 19.586387,5.4771969 19.56722,5.3105915 19.534426,5.0255484 19.798972,4.92116 24.050155,3.5416527 c 2.484783,-0.8063109 4.539762,-1.4440434 4.566622,-1.4171834 0.02686,0.02686 0.250603,1.3414075 0.497205,2.9212163 l 0.448371,2.8723801 4.291997,0.035242 4.291994,0.035241 0.14093,-0.8370498 c 0.07751,-0.4603777 0.275135,-1.7231072 0.439166,-2.8060661 0.164031,-1.0829583 0.339482,-2.0357498 0.389893,-2.1173141 0.062,-0.1003256 1.569672,0.3336591 4.660643,1.3415759 l 4.568992,1.4898746 -1.349957,2.6140981 c -0.742474,1.437754 -1.332241,2.6649397 -1.310593,2.7270807 0.02164,0.06214 1.572274,1.227677 3.445825,2.590082 l 3.406463,2.4771 2.139381,-2.129655 2.139381,-2.129656 2.338607,3.227303 c 1.286235,1.775016 2.566403,3.543874 2.844819,3.930796 l 0.506209,0.703493 -2.689561,1.346063 c -1.643018,0.822291 -2.666855,1.408519 -2.6312,1.50657 0.0321,0.08828 0.623729,1.918668 1.314728,4.067532 1.097336,3.412481 1.290193,3.90635 1.523632,3.901682 0.146998,-0.0029 1.469983,-0.19945 2.939966,-0.436689 l 2.672693,-0.431345 0.0351,4.802193 c 0.01929,2.641205 0.01566,4.821623 -0.0081,4.845375 -0.02376,0.02376 -1.331751,-0.163621 -2.906673,-0.41638 -1.574922,-0.252756 -2.903442,-0.416753 -2.952266,-0.36444 -0.100221,0.107381 -2.549165,7.616301 -2.572205,7.886848 -0.0083,0.09789 1.142286,0.776301 2.61982,1.544656 l 2.634681,1.370105 -2.830828,3.903745 -2.830824,3.903744 -2.109243,-2.106152 c -2.018244,-2.015291 -2.122201,-2.098138 -2.409729,-1.92039 -0.270701,0.167343 -6.487637,4.646559 -6.648143,4.789894 -0.03675,0.03282 0.550182,1.257613 1.30429,2.721766 1.339453,2.600648 1.364133,2.664749 1.069078,2.776818 -0.166116,0.06309 -2.241937,0.746705 -4.612937,1.51914 -4.149936,1.351984 -4.313242,1.393754 -4.373483,1.118611 -0.07184,-0.328102 -0.870495,-5.477362 -0.870495,-5.612421 0,-0.04912 -1.936631,-0.07343 -4.30362,-0.05404 l -4.303622,0.03526 -0.435666,2.799146 c -0.239614,1.539528 -0.452834,2.869255 -0.473821,2.954946 -0.02463,0.100626 -1.647195,-0.364479 -4.581738,-1.31336 z M 36.503985,44.326331 c 0.587992,-0.139671 1.640367,-0.538279 2.338607,-0.885796 1.086745,-0.540875 1.462797,-0.825114 2.611853,-1.97417 1.149707,-1.149708 1.432904,-1.52449 1.973596,-2.611853 0.896448,-1.802805 1.188445,-3.034062 1.188445,-5.011304 0,-1.211027 -0.06956,-1.865341 -0.284128,-2.672694 -0.99195,-3.732381 -3.672107,-6.503261 -7.427468,-7.678894 -1.336305,-0.418334 -3.652957,-0.515907 -5.132269,-0.216159 -4.08269,0.827258 -7.27024,3.807455 -8.381173,7.835967 -0.373266,1.353552 -0.343919,4.278235 0.05684,5.664184 1.640986,5.67509 7.263196,8.926676 13.0557,7.550719 z"
       id="path872" />
  </g>
</svg>
